  0
SECTION
  2
HEADER
  9
$ACADVER
  1
AC1009
  9
$DWGCODEPAGE
  3
ansi_1252
  9
$INSBASE
 10
0.0
 20
0.0
 30
0.0
  9
$EXTMIN
 10
204.0
 20
26.0
 30
0.0
  9
$EXTMAX
 10
224.0
 20
44.0
 30
3.000000000000001
  9
$LIMMIN
 10
0.0
 20
0.0
  9
$LIMMAX
 10
12.0
 20
9.0
  9
$ORTHOMODE
 70
     0
  9
$REGENMODE
 70
     1
  9
$FILLMODE
 70
     1
  9
$QTEXTMODE
 70
     0
  9
$MIRRTEXT
 70
     0
  9
$DRAGMODE
 70
     2
  9
$LTSCALE
 40
1.0
  9
$OSMODE
 70
    37
  9
$ATTMODE
 70
     1
  9
$TEXTSIZE
 40
0.2
  9
$TRACEWID
 40
0.05
  9
$TEXTSTYLE
  7
STANDARD
  9
$CLAYER
  8
SURFACES
  9
$CELTYPE
  6
BYLAYER
  9
$CECOLOR
 62
   256
  9
$DIMSCALE
 40
1.0
  9
$DIMASZ
 40
0.18
  9
$DIMEXO
 40
0.0625
  9
$DIMDLI
 40
0.38
  9
$DIMRND
 40
0.0
  9
$DIMDLE
 40
0.0
  9
$DIMEXE
 40
0.18
  9
$DIMTP
 40
0.0
  9
$DIMTM
 40
0.0
  9
$DIMTXT
 40
0.18
  9
$DIMCEN
 40
0.09
  9
$DIMTSZ
 40
0.0
  9
$DIMTOL
 70
     0
  9
$DIMLIM
 70
     0
  9
$DIMTIH
 70
     1
  9
$DIMTOH
 70
     1
  9
$DIMSE1
 70
     0
  9
$DIMSE2
 70
     0
  9
$DIMTAD
 70
     0
  9
$DIMZIN
 70
     0
  9
$DIMBLK
  1

  9
$DIMASO
 70
     1
  9
$DIMSHO
 70
     1
  9
$DIMPOST
  1

  9
$DIMAPOST
  1

  9
$DIMALT
 70
     0
  9
$DIMALTD
 70
     2
  9
$DIMALTF
 40
25.4
  9
$DIMLFAC
 40
1.0
  9
$DIMTOFL
 70
     0
  9
$DIMTVP
 40
0.0
  9
$DIMTIX
 70
     0
  9
$DIMSOXD
 70
     0
  9
$DIMSAH
 70
     0
  9
$DIMBLK1
  1

  9
$DIMBLK2
  1

  9
$DIMSTYLE
  2
STANDARD_ACAD
  9
$DIMCLRD
 70
     0
  9
$DIMCLRE
 70
     0
  9
$DIMCLRT
 70
     0
  9
$DIMTFAC
 40
1.0
  9
$DIMGAP
 40
0.09
  9
$LUNITS
 70
     2
  9
$LUPREC
 70
     2
  9
$SKETCHINC
 40
0.1
  9
$FILLETRAD
 40
0.0
  9
$AUNITS
 70
     0
  9
$AUPREC
 70
     0
  9
$MENU
  1
.
  9
$ELEVATION
 40
0.0
  9
$PELEVATION
 40
0.0
  9
$THICKNESS
 40
0.0
  9
$LIMCHECK
 70
     0
  9
$CHAMFERA
 40
0.0
  9
$CHAMFERB
 40
0.0
  9
$SKPOLY
 70
     0
  9
$TDCREATE
 40
2461113.512292303
  9
$TDUPDATE
 40
2461113.512292303
  9
$TDINDWG
 40
0.0000000116
  9
$TDUSRTIMER
 40
0.0000000116
  9
$USRTIMER
 70
     1
  9
$ANGBASE
 50
0.0
  9
$ANGDIR
 70
     0
  9
$PDMODE
 70
     0
  9
$PDSIZE
 40
0.0
  9
$PLINEWID
 40
0.0
  9
$COORDS
 70
     1
  9
$SPLFRAME
 70
     0
  9
$SPLINETYPE
 70
     6
  9
$SPLINESEGS
 70
     8
  9
$ATTDIA
 70
     1
  9
$ATTREQ
 70
     1
  9
$HANDLING
 70
     1
  9
$HANDSEED
  5
1C8
  9
$SURFTAB1
 70
     6
  9
$SURFTAB2
 70
     6
  9
$SURFTYPE
 70
     6
  9
$SURFU
 70
     6
  9
$SURFV
 70
     6
  9
$UCSNAME
  2

  9
$UCSORG
 10
0.0
 20
0.0
 30
0.0
  9
$UCSXDIR
 10
1.0
 20
0.0
 30
0.0
  9
$UCSYDIR
 10
0.0
 20
1.0
 30
0.0
  9
$PUCSNAME
  2

  9
$PUCSORG
 10
0.0
 20
0.0
 30
0.0
  9
$PUCSXDIR
 10
1.0
 20
0.0
 30
0.0
  9
$PUCSYDIR
 10
0.0
 20
1.0
 30
0.0
  9
$USERI1
 70
     0
  9
$USERI2
 70
     0
  9
$USERI3
 70
     0
  9
$USERI4
 70
     0
  9
$USERI5
 70
     0
  9
$USERR1
 40
0.0
  9
$USERR2
 40
0.0
  9
$USERR3
 40
0.0
  9
$USERR4
 40
0.0
  9
$USERR5
 40
0.0
  9
$WORLDVIEW
 70
     1
  9
$SHADEDGE
 70
     3
  9
$SHADEDIF
 70
    70
  9
$TILEMODE
 70
     1
  9
$MAXACTVP
 70
    64
  9
$PLIMCHECK
 70
     0
  9
$PEXTMIN
 10
1.000000000000000E+20
 20
1.000000000000000E+20
 30
1.000000000000000E+20
  9
$PEXTMAX
 10
-1.000000000000000E+20
 20
-1.000000000000000E+20
 30
-1.000000000000000E+20
  9
$PLIMMIN
 10
0.0
 20
0.0
  9
$PLIMMAX
 10
12.0
 20
9.0
  9
$UNITMODE
 70
     0
  9
$VISRETAIN
 70
     1
  9
$PLINEGEN
 70
     0
  9
$PSLTSCALE
 70
     1
  0
ENDSEC
  0
SECTION
  2
TABLES
  0
TABLE
  2
VPORT
 70
     1
  0
VPORT
  2
*ACTIVE
 70
     0
 10
0.0
 20
0.0
 11
1.0
 21
1.0
 12
10.42990654205607
 22
4.5
 13
0.0
 23
0.0
 14
0.5
 24
0.5
 15
0.5
 25
0.5
 16
0.0
 26
0.0
 36
1.0
 17
0.0
 27
0.0
 37
0.0
 40
9.0
 41
1.972972972850329
 42
50.0
 43
0.0
 44
0.0
 50
0.0
 51
0.0
 71
     0
 72
   100
 73
     1
 74
     3
 75
     0
 76
     0
 77
     0
 78
     0
  0
ENDTAB
  0
TABLE
  2
LTYPE
 70
     1
  0
LTYPE
  2
CONTINUOUS
 70
     0
  3
Solid line
 72
    65
 73
     0
 40
0.0
  0
ENDTAB
  0
TABLE
  2
LAYER
 70
     3
  0
LAYER
  2
0
 70
     0
 62
     7
  6
CONTINUOUS
  0
LAYER
  2
SURFACES
 70
     0
 62
   192
  6
CONTINUOUS
  0
LAYER
  2
AXIS
 70
     0
 62
    12
  6
CONTINUOUS
  0
ENDTAB
  0
TABLE
  2
STYLE
 70
     1
  0
STYLE
  2
STANDARD
 70
     0
 40
0.0
 41
1.0
 50
0.0
 71
     0
 42
0.2
  3
txt
  4

  0
ENDTAB
  0
TABLE
  2
VIEW
 70
     0
  0
ENDTAB
  0
TABLE
  2
UCS
 70
     0
  0
ENDTAB
  0
TABLE
  2
APPID
 70
     2
  0
APPID
  2
ACAD
 70
     0
  0
APPID
  2
RHINO
 70
     0
  0
ENDTAB
  0
TABLE
  2
DIMSTYLE
 70
     1
  0
DIMSTYLE
  2
STANDARD_ACAD
 70
     0
  3

  4

  5

  6

  7

 40
1.0
 41
0.18
 42
0.0625
 43
0.38
 44
0.18
 45
0.0
 46
0.0
 47
0.0
 48
0.0
140
0.18
141
0.09
142
0.0
143
25.4
144
1.0
145
0.0
146
1.0
147
0.09
 71
     0
 72
     0
 73
     1
 74
     1
 75
     0
 76
     0
 77
     0
 78
     0
170
     0
171
     2
172
     0
173
     0
174
     0
175
     0
176
     0
177
     0
178
     0
  0
ENDTAB
  0
ENDSEC
  0
SECTION
  2
BLOCKS
  0
BLOCK
  8
0
  2
$MODEL_SPACE
 70
     0
 10
0.0
 20
0.0
 30
0.0
  3
$MODEL_SPACE
  1

  0
ENDBLK
  5
21
  8
0
  0
BLOCK
 67
     1
  8
0
  2
$PAPER_SPACE
 70
     0
 10
0.0
 20
0.0
 30
0.0
  3
$PAPER_SPACE
  1

  0
ENDBLK
  5
1D
 67
     1
  8
0
  0
ENDSEC
  0
SECTION
  2
ENTITIES
  0
LINE
  5
60
  8
SURFACES
 10
204.0
 20
32.0
 30
0.0
 11
204.0
 21
34.0
 31
0.0
  0
LINE
  5
61
  8
SURFACES
 10
204.0
 20
34.0
 30
0.0
 11
204.0
 21
34.0
 31
3.0
  0
LINE
  5
62
  8
SURFACES
 10
204.0
 20
34.0
 30
3.0
 11
204.0
 21
32.0
 31
0.0
  0
LINE
  5
63
  8
SURFACES
 10
204.0
 20
33.0
 30
1.5
 11
204.0
 21
34.0
 31
0.0
  0
LINE
  5
64
  8
SURFACES
 10
204.0
 20
33.0
 30
0.0
 11
204.0
 21
34.0
 31
1.5
  0
LINE
  5
65
  8
SURFACES
 10
214.0
 20
29.0
 30
3.0
 11
214.0
 21
29.0
 31
0.0
  0
LINE
  5
66
  8
SURFACES
 10
214.0
 20
29.0
 30
0.0
 11
214.0
 21
31.0
 31
0.0
  0
LINE
  5
67
  8
SURFACES
 10
214.0
 20
31.0
 30
0.0
 11
214.0
 21
29.0
 31
3.0
  0
LINE
  5
68
  8
SURFACES
 10
214.0
 20
30.0
 30
1.5
 11
214.0
 21
29.0
 31
0.0
  0
LINE
  5
69
  8
SURFACES
 10
214.0
 20
29.0
 30
1.5
 11
214.0
 21
30.0
 31
0.0
  0
LINE
  5
6A
  8
SURFACES
 10
214.0
 20
34.0
 30
3.0
 11
216.0
 21
32.0
 31
0.0
  0
LINE
  5
6B
  8
SURFACES
 10
216.0
 20
32.0
 30
0.0
 11
214.0
 21
32.0
 31
0.0
  0
LINE
  5
6C
  8
SURFACES
 10
214.0
 20
32.0
 30
0.0
 11
214.0
 21
34.0
 31
3.0
  0
LINE
  5
6D
  8
SURFACES
 10
214.0
 20
33.0
 30
1.5
 11
216.0
 21
32.0
 31
0.0
  0
LINE
  5
6E
  8
SURFACES
 10
215.0
 20
33.0
 30
1.5
 11
215.0
 21
32.0
 31
0.0
  0
LINE
  5
6F
  8
SURFACES
 10
214.0
 20
34.0
 30
3.0
 11
214.0
 21
32.0
 31
0.0
  0
LINE
  5
70
  8
SURFACES
 10
214.0
 20
32.0
 30
0.0
 11
209.0897260065835
 21
32.0
 31
0.0
  0
LINE
  5
71
  8
SURFACES
 10
209.0897260065835
 20
32.0
 30
0.0
 11
214.0
 21
34.0
 31
3.0
  0
LINE
  5
72
  8
SURFACES
 10
211.5448630032918
 20
33.0
 30
1.5
 11
214.0
 21
32.0
 31
0.0
  0
LINE
  5
73
  8
SURFACES
 10
214.0
 20
33.0
 30
1.5
 11
211.5448630032918
 21
32.0
 31
0.0
  0
LINE
  5
74
  8
SURFACES
 10
209.0897260065835
 20
34.0
 30
3.0
 11
214.0
 21
34.0
 31
3.0
  0
LINE
  5
75
  8
SURFACES
 10
214.0
 20
34.0
 30
3.0
 11
209.0897260065835
 21
32.0
 31
0.0
  0
LINE
  5
76
  8
SURFACES
 10
209.0897260065835
 20
32.0
 30
0.0
 11
209.0897260065835
 21
34.0
 31
3.0
  0
LINE
  5
77
  8
SURFACES
 10
209.0897260065835
 20
33.0
 30
1.5
 11
214.0
 21
34.0
 31
3.0
  0
LINE
  5
78
  8
SURFACES
 10
211.5448630032918
 20
34.0
 30
3.0
 11
211.5448630032918
 21
33.0
 31
1.5
  0
LINE
  5
79
  8
SURFACES
 10
204.0
 20
34.0
 30
3.0
 11
209.0897260065835
 21
34.0
 31
3.0
  0
LINE
  5
7A
  8
SURFACES
 10
209.0897260065835
 20
34.0
 30
3.0
 11
209.0897260065835
 21
32.0
 31
0.0
  0
LINE
  5
7B
  8
SURFACES
 10
209.0897260065835
 20
32.0
 30
0.0
 11
204.0
 21
34.0
 31
3.0
  0
LINE
  5
7C
  8
SURFACES
 10
206.5448630032918
 20
33.0
 30
1.5
 11
209.0897260065835
 21
34.0
 31
3.0
  0
LINE
  5
7D
  8
SURFACES
 10
206.5448630032918
 20
34.0
 30
3.0
 11
209.0897260065835
 21
33.0
 31
1.5
  0
LINE
  5
7E
  8
SURFACES
 10
204.0
 20
32.0
 30
0.0
 11
204.0
 21
34.0
 31
3.0
  0
LINE
  5
7F
  8
SURFACES
 10
204.0
 20
34.0
 30
3.0
 11
209.0897260065835
 21
32.0
 31
0.0
  0
LINE
  5
80
  8
SURFACES
 10
209.0897260065835
 20
32.0
 30
0.0
 11
204.0
 21
32.0
 31
0.0
  0
LINE
  5
81
  8
SURFACES
 10
206.5448630032918
 20
32.0
 30
0.0
 11
204.0
 21
34.0
 31
3.0
  0
LINE
  5
82
  8
SURFACES
 10
204.0
 20
33.0
 30
1.5
 11
206.5448630032918
 21
33.0
 31
1.5
  0
LINE
  5
83
  8
SURFACES
 10
205.281709196906
 20
37.92483360147992
 30
0.0
 11
207.1270243274838
 21
38.69607420522204
 31
3.0
  0
LINE
  5
84
  8
SURFACES
 10
207.1270243274838
 20
38.69607420522204
 30
3.0
 11
206.0861841639776
 21
36.0
 31
0.0
  0
LINE
  5
85
  8
SURFACES
 10
206.0861841639776
 20
36.0
 30
0.0
 11
205.281709196906
 21
37.92483360147992
 31
0.0
  0
LINE
  5
86
  8
SURFACES
 10
205.6839466804418
 20
36.96241680073996
 30
0.0
 11
207.1270243274838
 21
38.69607420522204
 31
3.0
  0
LINE
  5
87
  8
SURFACES
 10
206.2043667621949
 20
38.31045390335098
 30
1.5
 11
206.6066042457307
 21
37.34803710261102
 31
1.5
  0
LINE
  5
88
  8
SURFACES
 10
205.281709196906
 20
37.92483360147992
 30
0.0
 11
207.1270243274838
 21
38.69607420522203
 31
0.0
  0
LINE
  5
89
  8
SURFACES
 10
207.1270243274838
 20
38.69607420522203
 30
0.0
 11
207.1270243274838
 21
38.69607420522204
 31
3.0
  0
LINE
  5
8A
  8
SURFACES
 10
207.1270243274838
 20
38.69607420522204
 30
3.0
 11
205.281709196906
 21
37.92483360147992
 31
0.0
  0
LINE
  5
8B
  8
SURFACES
 10
206.2043667621949
 20
38.31045390335098
 30
1.5
 11
207.1270243274838
 21
38.69607420522203
 31
0.0
  0
LINE
  5
8C
  8
SURFACES
 10
206.2043667621949
 20
38.31045390335098
 30
0.0
 11
207.1270243274838
 21
38.69607420522203
 31
1.5
  0
LINE
  5
8D
  8
SURFACES
 10
211.0
 20
36.0
 30
0.0
 11
214.0
 21
34.0
 31
3.0
  0
LINE
  5
8E
  8
SURFACES
 10
214.0
 20
34.0
 30
3.0
 11
209.0897260065835
 21
34.0
 31
3.0
  0
LINE
  5
8F
  8
SURFACES
 10
209.0897260065835
 20
34.0
 30
3.0
 11
211.0
 21
36.0
 31
0.0
  0
LINE
  5
90
  8
SURFACES
 10
210.0448630032918
 20
35.0
 30
1.5
 11
214.0
 21
34.0
 31
3.0
  0
LINE
  5
91
  8
SURFACES
 10
212.5
 20
35.0
 30
1.5
 11
211.5448630032918
 21
34.0
 31
3.0
  0
LINE
  5
92
  8
SURFACES
 10
211.0
 20
36.0
 30
0.0
 11
209.0897260065835
 21
34.0
 31
3.0
  0
LINE
  5
93
  8
SURFACES
 10
209.0897260065835
 20
34.0
 30
3.0
 11
210.4214870439226
 21
36.0
 31
0.0
  0
LINE
  5
94
  8
SURFACES
 10
210.4214870439226
 20
36.0
 30
0.0
 11
211.0
 21
36.0
 31
0.0
  0
LINE
  5
95
  8
SURFACES
 10
210.7107435219613
 20
36.0
 30
0.0
 11
209.0897260065835
 21
34.0
 31
3.0
  0
LINE
  5
96
  8
SURFACES
 10
210.0448630032918
 20
35.0
 30
1.5
 11
209.755606525253
 21
35.0
 31
1.5
  0
LINE
  5
97
  8
SURFACES
 10
211.0
 20
44.0
 30
0.0
 11
214.0
 21
44.0
 31
0.0
  0
LINE
  5
98
  8
SURFACES
 10
214.0
 20
44.0
 30
0.0
 11
214.0
 21
44.0
 31
3.0
  0
LINE
  5
99
  8
SURFACES
 10
214.0
 20
44.0
 30
3.0
 11
211.0
 21
44.0
 31
0.0
  0
LINE
  5
9A
  8
SURFACES
 10
212.5
 20
44.0
 30
1.5
 11
214.0
 21
44.0
 31
0.0
  0
LINE
  5
9B
  8
SURFACES
 10
212.5
 20
44.0
 30
0.0
 11
214.0
 21
44.0
 31
1.5
  0
LINE
  5
9C
  8
SURFACES
 10
211.0
 20
39.0
 30
0.0
 11
214.0
 21
36.5
 31
3.0
  0
LINE
  5
9D
  8
SURFACES
 10
214.0
 20
36.5
 30
3.0
 11
211.0
 21
36.0
 31
0.0
  0
LINE
  5
9E
  8
SURFACES
 10
211.0
 20
36.0
 30
0.0
 11
211.0
 21
39.0
 31
0.0
  0
LINE
  5
9F
  8
SURFACES
 10
211.0
 20
37.5
 30
0.0
 11
214.0
 21
36.5
 31
3.0
  0
LINE
  5
A0
  8
SURFACES
 10
212.5
 20
37.75
 30
1.5
 11
212.5
 21
36.25
 31
1.5
  0
LINE
  5
A1
  8
SURFACES
 10
214.0
 20
39.0
 30
3.0
 11
214.0
 21
36.5
 31
3.0
  0
LINE
  5
A2
  8
SURFACES
 10
214.0
 20
36.5
 30
3.0
 11
211.0
 21
39.0
 31
0.0
  0
LINE
  5
A3
  8
SURFACES
 10
211.0
 20
39.0
 30
0.0
 11
214.0
 21
39.0
 31
3.0
  0
LINE
  5
A4
  8
SURFACES
 10
212.5
 20
39.0
 30
1.5
 11
214.0
 21
36.5
 31
3.0
  0
LINE
  5
A5
  8
SURFACES
 10
214.0
 20
37.75
 30
3.0
 11
212.5
 21
37.75
 31
1.5
  0
LINE
  5
A6
  8
SURFACES
 10
214.0
 20
41.5
 30
3.0
 11
214.0
 21
39.0
 31
3.0
  0
LINE
  5
A7
  8
SURFACES
 10
214.0
 20
39.0
 30
3.0
 11
211.0
 21
39.0
 31
0.0
  0
LINE
  5
A8
  8
SURFACES
 10
211.0
 20
39.0
 30
0.0
 11
214.0
 21
41.5
 31
3.0
  0
LINE
  5
A9
  8
SURFACES
 10
212.5
 20
40.25
 30
1.5
 11
214.0
 21
39.0
 31
3.0
  0
LINE
  5
AA
  8
SURFACES
 10
214.0
 20
40.25
 30
3.0
 11
212.5
 21
39.0
 31
1.5
  0
LINE
  5
AB
  8
SURFACES
 10
214.0
 20
44.0
 30
3.0
 11
214.0
 21
41.5
 31
3.0
  0
LINE
  5
AC
  8
SURFACES
 10
214.0
 20
41.5
 30
3.0
 11
211.0
 21
39.0
 31
0.0
  0
LINE
  5
AD
  8
SURFACES
 10
211.0
 20
39.0
 30
0.0
 11
214.0
 21
44.0
 31
3.0
  0
LINE
  5
AE
  8
SURFACES
 10
212.5
 20
41.5
 30
1.5
 11
214.0
 21
41.5
 31
3.0
  0
LINE
  5
AF
  8
SURFACES
 10
214.0
 20
42.75
 30
3.0
 11
212.5
 21
40.25
 31
1.5
  0
LINE
  5
B0
  8
SURFACES
 10
211.0
 20
44.0
 30
0.0
 11
214.0
 21
44.0
 31
3.0
  0
LINE
  5
B1
  8
SURFACES
 10
214.0
 20
44.0
 30
3.0
 11
211.0
 21
39.0
 31
0.0
  0
LINE
  5
B2
  8
SURFACES
 10
211.0
 20
39.0
 30
0.0
 11
211.0
 21
44.0
 31
0.0
  0
LINE
  5
B3
  8
SURFACES
 10
211.0
 20
41.5
 30
0.0
 11
214.0
 21
44.0
 31
3.0
  0
LINE
  5
B4
  8
SURFACES
 10
212.5
 20
44.0
 30
1.5
 11
212.5
 21
41.5
 31
1.5
  0
LINE
  5
B5
  8
SURFACES
 10
218.0
 20
34.0
 30
3.0
 11
218.0
 21
31.5
 31
3.0
  0
LINE
  5
B6
  8
SURFACES
 10
218.0
 20
31.5
 30
3.0
 11
216.0
 21
32.0
 31
0.0
  0
LINE
  5
B7
  8
SURFACES
 10
216.0
 20
32.0
 30
0.0
 11
218.0
 21
34.0
 31
3.0
  0
LINE
  5
B8
  8
SURFACES
 10
217.0
 20
33.0
 30
1.5
 11
218.0
 21
31.5
 31
3.0
  0
LINE
  5
B9
  8
SURFACES
 10
218.0
 20
32.75
 30
3.0
 11
217.0
 21
31.75
 31
1.5
  0
LINE
  5
BA
  8
SURFACES
 10
216.0
 20
32.0
 30
0.0
 11
218.0
 21
31.5
 31
3.0
  0
LINE
  5
BB
  8
SURFACES
 10
218.0
 20
31.5
 30
3.0
 11
216.0
 21
31.0
 31
0.0
  0
LINE
  5
BC
  8
SURFACES
 10
216.0
 20
31.0
 30
0.0
 11
216.0
 21
32.0
 31
0.0
  0
LINE
  5
BD
  8
SURFACES
 10
216.0
 20
31.5
 30
0.0
 11
218.0
 21
31.5
 31
3.0
  0
LINE
  5
BE
  8
SURFACES
 10
217.0
 20
31.75
 30
1.5
 11
217.0
 21
31.25
 31
1.5
  0
LINE
  5
BF
  8
SURFACES
 10
216.0
 20
31.0
 30
0.0
 11
218.0
 21
31.5
 31
3.0
  0
LINE
  5
C0
  8
SURFACES
 10
218.0
 20
31.5
 30
3.0
 11
218.0
 21
29.0
 31
3.0
  0
LINE
  5
C1
  8
SURFACES
 10
218.0
 20
29.0
 30
3.0
 11
216.0
 21
31.0
 31
0.0
  0
LINE
  5
C2
  8
SURFACES
 10
217.0
 20
30.0
 30
1.5
 11
218.0
 21
31.5
 31
3.0
  0
LINE
  5
C3
  8
SURFACES
 10
217.0
 20
31.25
 30
1.5
 11
218.0
 21
30.25
 31
3.0
  0
LINE
  5
C4
  8
SURFACES
 10
214.0
 20
34.0
 30
3.0
 11
218.0
 21
34.0
 31
3.0
  0
LINE
  5
C5
  8
SURFACES
 10
218.0
 20
34.0
 30
3.0
 11
216.0
 21
32.0
 31
0.0
  0
LINE
  5
C6
  8
SURFACES
 10
216.0
 20
32.0
 30
0.0
 11
214.0
 21
34.0
 31
3.0
  0
LINE
  5
C7
  8
SURFACES
 10
215.0
 20
33.0
 30
1.5
 11
218.0
 21
34.0
 31
3.0
  0
LINE
  5
C8
  8
SURFACES
 10
216.0
 20
34.0
 30
3.0
 11
217.0
 21
33.0
 31
1.5
  0
LINE
  5
C9
  8
SURFACES
 10
217.0
 20
38.0459340771462
 30
0.0
 11
219.0
 21
41.00000000000001
 31
3.000000000000001
  0
LINE
  5
CA
  8
SURFACES
 10
219.0
 20
41.00000000000001
 30
3.000000000000001
 11
219.7427813527082
 21
39.14304661822949
 31
0.0
  0
LINE
  5
CB
  8
SURFACES
 10
219.7427813527082
 20
39.14304661822949
 30
0.0
 11
217.0
 21
38.0459340771462
 31
0.0
  0
LINE
  5
CC
  8
SURFACES
 10
218.3713906763541
 20
38.59449034768785
 30
0.0
 11
219.0
 21
41.00000000000001
 31
3.000000000000001
  0
LINE
  5
CD
  8
SURFACES
 10
218.0
 20
39.5229670385731
 30
1.5
 11
219.3713906763541
 21
40.07152330911475
 31
1.5
  0
LINE
  5
CE
  8
SURFACES
 10
217.0
 20
38.0459340771462
 30
0.0
 11
214.0
 21
39.0
 31
3.000000000000001
  0
LINE
  5
CF
  8
SURFACES
 10
214.0
 20
39.0
 30
3.000000000000001
 11
216.5
 21
40.0
 31
3.0
  0
LINE
  5
D0
  8
SURFACES
 10
216.5
 20
40.0
 30
3.0
 11
217.0
 21
38.0459340771462
 31
0.0
  0
LINE
  5
D1
  8
SURFACES
 10
216.75
 20
39.0229670385731
 30
1.5
 11
214.0
 21
39.0
 31
3.000000000000001
  0
LINE
  5
D2
  8
SURFACES
 10
215.5
 20
38.5229670385731
 30
1.5
 11
215.25
 21
39.5
 31
3.000000000000001
  0
LINE
  5
D3
  8
SURFACES
 10
217.0
 20
38.0459340771462
 30
0.0
 11
216.5
 21
40.0
 31
3.0
  0
LINE
  5
D4
  8
SURFACES
 10
216.5
 20
40.0
 30
3.0
 11
219.0
 21
41.00000000000001
 31
3.000000000000001
  0
LINE
  5
D5
  8
SURFACES
 10
219.0
 20
41.00000000000001
 30
3.000000000000001
 11
217.0
 21
38.0459340771462
 31
0.0
  0
LINE
  5
D6
  8
SURFACES
 10
218.0
 20
39.5229670385731
 30
1.5
 11
216.5
 21
40.0
 31
3.0
  0
LINE
  5
D7
  8
SURFACES
 10
216.75
 20
39.0229670385731
 30
1.5
 11
217.75
 21
40.5
 31
3.000000000000001
  0
LINE
  5
D8
  8
SURFACES
 10
217.0
 20
42.35406592285381
 30
0.0
 11
214.0
 21
39.0
 31
3.000000000000001
  0
LINE
  5
D9
  8
SURFACES
 10
214.0
 20
39.0
 30
3.000000000000001
 11
216.5
 21
40.0
 31
3.0
  0
LINE
  5
DA
  8
SURFACES
 10
216.5
 20
40.0
 30
3.0
 11
217.0
 21
42.35406592285381
 31
0.0
  0
LINE
  5
DB
  8
SURFACES
 10
216.75
 20
41.1770329614269
 30
1.5
 11
214.0
 21
39.0
 31
3.000000000000001
  0
LINE
  5
DC
  8
SURFACES
 10
215.5
 20
40.6770329614269
 30
1.5
 11
215.25
 21
39.5
 31
3.000000000000001
  0
LINE
  5
DD
  8
SURFACES
 10
217.0
 20
42.35406592285381
 30
0.0
 11
216.5
 21
40.0
 31
3.0
  0
LINE
  5
DE
  8
SURFACES
 10
216.5
 20
40.0
 30
3.0
 11
219.0
 21
41.00000000000001
 31
3.000000000000001
  0
LINE
  5
DF
  8
SURFACES
 10
219.0
 20
41.00000000000001
 30
3.000000000000001
 11
217.0
 21
42.35406592285381
 31
0.0
  0
LINE
  5
E0
  8
SURFACES
 10
218.0
 20
41.67703296142691
 30
1.5
 11
216.5
 21
40.0
 31
3.0
  0
LINE
  5
E1
  8
SURFACES
 10
216.75
 20
41.1770329614269
 30
1.5
 11
217.75
 21
40.5
 31
3.000000000000001
  0
LINE
  5
E2
  8
SURFACES
 10
217.0
 20
42.35406592285381
 30
0.0
 11
219.0
 21
41.00000000000001
 31
3.000000000000001
  0
LINE
  5
E3
  8
SURFACES
 10
219.0
 20
41.00000000000001
 30
3.000000000000001
 11
218.2572186472918
 21
42.85695338177053
 31
0.0
  0
LINE
  5
E4
  8
SURFACES
 10
218.2572186472918
 20
42.85695338177053
 30
0.0
 11
217.0
 21
42.35406592285381
 31
0.0
  0
LINE
  5
E5
  8
SURFACES
 10
217.6286093236459
 20
42.60550965231217
 30
0.0
 11
219.0
 21
41.00000000000001
 31
3.000000000000001
  0
LINE
  5
E6
  8
SURFACES
 10
218.0
 20
41.67703296142691
 30
1.5
 11
218.6286093236459
 21
41.92847669088527
 31
1.5
  0
LINE
  5
E7
  8
SURFACES
 10
220.8382900600361
 20
40.21216140284166
 30
0.0
 11
219.0
 21
41.00000000000001
 31
3.000000000000001
  0
LINE
  5
E8
  8
SURFACES
 10
219.0
 20
41.00000000000001
 30
3.000000000000001
 11
219.7427813527082
 21
39.14304661822949
 31
0.0
  0
LINE
  5
E9
  8
SURFACES
 10
219.7427813527082
 20
39.14304661822949
 30
0.0
 11
220.8382900600361
 21
40.21216140284166
 31
0.0
  0
LINE
  5
EA
  8
SURFACES
 10
220.2905357063721
 20
39.67760401053557
 30
0.0
 11
219.0
 21
41.00000000000001
 31
3.000000000000001
  0
LINE
  5
EB
  8
SURFACES
 10
219.9191450300181
 20
40.60608070142084
 30
1.5
 11
219.3713906763541
 21
40.07152330911475
 31
1.5
  0
LINE
  5
EC
  8
SURFACES
 10
220.8569533817706
 20
41.74278135270821
 30
0.0
 11
219.0
 21
41.00000000000001
 31
3.000000000000001
  0
LINE
  5
ED
  8
SURFACES
 10
219.0
 20
41.00000000000001
 30
3.000000000000001
 11
220.8382900600361
 21
40.21216140284166
 31
0.0
  0
LINE
  5
EE
  8
SURFACES
 10
220.8382900600361
 20
40.21216140284166
 30
0.0
 11
220.8569533817706
 21
41.74278135270821
 31
0.0
  0
LINE
  5
EF
  8
SURFACES
 10
220.8476217209033
 20
40.97747137777493
 30
0.0
 11
219.0
 21
41.00000000000001
 31
3.000000000000001
  0
LINE
  5
F0
  8
SURFACES
 10
219.9284766908852
 20
41.3713906763541
 30
1.5
 11
219.919145030018
 21
40.60608070142082
 31
1.5
  0
LINE
  5
F1
  8
SURFACES
 10
219.7878385971583
 20
42.83829006003612
 30
0.0
 11
219.0
 21
41.00000000000001
 31
3.000000000000001
  0
LINE
  5
F2
  8
SURFACES
 10
219.0
 20
41.00000000000001
 30
3.000000000000001
 11
220.8569533817706
 21
41.74278135270821
 31
0.0
  0
LINE
  5
F3
  8
SURFACES
 10
220.8569533817706
 20
41.74278135270821
 30
0.0
 11
219.7878385971583
 21
42.83829006003612
 31
0.0
  0
LINE
  5
F4
  8
SURFACES
 10
220.3223959894644
 20
42.29053570637216
 30
0.0
 11
219.0
 21
41.00000000000001
 31
3.000000000000001
  0
LINE
  5
F5
  8
SURFACES
 10
219.3939192985792
 20
41.91914503001806
 30
1.5
 11
219.9284766908853
 21
41.37139067635411
 31
1.5
  0
LINE
  5
F6
  8
SURFACES
 10
218.2572186472918
 20
42.85695338177053
 30
0.0
 11
219.0
 21
41.00000000000001
 31
3.000000000000001
  0
LINE
  5
F7
  8
SURFACES
 10
219.0
 20
41.00000000000001
 30
3.000000000000001
 11
219.7878385971583
 21
42.83829006003612
 31
0.0
  0
LINE
  5
F8
  8
SURFACES
 10
219.7878385971583
 20
42.83829006003612
 30
0.0
 11
218.2572186472918
 21
42.85695338177053
 31
0.0
  0
LINE
  5
F9
  8
SURFACES
 10
219.0225286222251
 20
42.84762172090333
 30
0.0
 11
219.0
 21
41.00000000000001
 31
3.000000000000001
  0
LINE
  5
FA
  8
SURFACES
 10
218.6286093236459
 20
41.92847669088527
 30
1.5
 11
219.3939192985792
 21
41.91914503001806
 31
1.5
  0
LINE
  5
FB
  8
SURFACES
 10
217.0
 20
42.35406592285381
 30
0.0
 11
214.0
 21
41.5
 31
3.0
  0
LINE
  5
FC
  8
SURFACES
 10
214.0
 20
41.5
 30
3.0
 11
214.0
 21
39.0
 31
3.0
  0
LINE
  5
FD
  8
SURFACES
 10
214.0
 20
39.0
 30
3.0
 11
217.0
 21
42.35406592285381
 31
0.0
  0
LINE
  5
FE
  8
SURFACES
 10
215.5
 20
40.6770329614269
 30
1.5
 11
214.0
 21
41.5
 31
3.0
  0
LINE
  5
FF
  8
SURFACES
 10
215.5
 20
41.9270329614269
 30
1.5
 11
214.0
 21
40.25
 31
3.0
  0
LINE
  5
101
  8
AXIS
 10
218.0
 20
29.0
 30
3.0
 11
218.0
 21
34.0
 31
3.0
  0
LINE
  5
102
  8
AXIS
 10
218.0
 20
26.0
 30
3.0
 11
218.0
 21
29.0
 31
3.0
  0
LINE
  5
103
  8
AXIS
 10
218.0
 20
34.0
 30
3.0
 11
224.0
 21
34.0
 31
3.0
  0
LINE
  5
104
  8
AXIS
 10
214.0
 20
34.0
 30
3.0
 11
218.0
 21
34.0
 31
3.0
  0
LINE
  5
105
  8
AXIS
 10
209.0897260065835
 20
34.0
 30
3.0
 11
214.0
 21
34.0
 31
3.0
  0
LINE
  5
106
  8
AXIS
 10
204.0
 20
34.0
 30
3.0
 11
209.0897260065835
 21
34.0
 31
3.0
  0
LINE
  5
107
  8
SURFACES
 10
217.0
 20
38.0459340771462
 30
0.0
 11
217.0
 21
42.35406592285381
 31
0.0
  0
LINE
  5
108
  8
SURFACES
 10
214.0
 20
29.0
 30
3.0
 11
214.0
 21
29.0
 31
0.0
  0
LINE
  5
109
  8
SURFACES
 10
214.0
 20
29.0
 30
0.0
 11
214.0
 21
27.0
 31
0.0
  0
LINE
  5
10A
  8
SURFACES
 10
214.0
 20
27.0
 30
0.0
 11
214.0
 21
29.0
 31
3.0
  0
LINE
  5
10B
  8
SURFACES
 10
214.0
 20
28.0
 30
1.5
 11
214.0
 21
29.0
 31
0.0
  0
LINE
  5
10C
  8
SURFACES
 10
214.0
 20
29.0
 30
1.5
 11
214.0
 21
28.0
 31
0.0
  0
LINE
  5
10D
  8
SURFACES
 10
218.0
 20
26.0
 30
3.0
 11
218.0
 21
26.0
 31
0.0
  0
LINE
  5
10E
  8
SURFACES
 10
218.0
 20
26.0
 30
0.0
 11
220.0
 21
26.0
 31
0.0
  0
LINE
  5
10F
  8
SURFACES
 10
220.0
 20
26.0
 30
0.0
 11
218.0
 21
26.0
 31
3.0
  0
LINE
  5
110
  8
SURFACES
 10
219.0
 20
26.0
 30
1.5
 11
218.0
 21
26.0
 31
0.0
  0
LINE
  5
111
  8
SURFACES
 10
218.0
 20
26.0
 30
1.5
 11
219.0
 21
26.0
 31
0.0
  0
LINE
  5
112
  8
SURFACES
 10
216.0
 20
26.0
 30
0.0
 11
218.0
 21
26.0
 31
0.0
  0
LINE
  5
113
  8
SURFACES
 10
218.0
 20
26.0
 30
0.0
 11
218.0
 21
26.0
 31
3.0
  0
LINE
  5
114
  8
SURFACES
 10
218.0
 20
26.0
 30
3.0
 11
216.0
 21
26.0
 31
0.0
  0
LINE
  5
115
  8
SURFACES
 10
217.0
 20
26.0
 30
1.5
 11
218.0
 21
26.0
 31
0.0
  0
LINE
  5
116
  8
SURFACES
 10
217.0
 20
26.0
 30
0.0
 11
218.0
 21
26.0
 31
1.5
  0
LINE
  5
117
  8
SURFACES
 10
224.0
 20
31.0
 30
0.0
 11
224.0
 21
34.0
 31
0.0
  0
LINE
  5
118
  8
SURFACES
 10
224.0
 20
34.0
 30
0.0
 11
224.0
 21
34.0
 31
3.0
  0
LINE
  5
119
  8
SURFACES
 10
224.0
 20
34.0
 30
3.0
 11
224.0
 21
31.0
 31
0.0
  0
LINE
  5
11A
  8
SURFACES
 10
224.0
 20
32.5
 30
1.5
 11
224.0
 21
34.0
 31
0.0
  0
LINE
  5
11B
  8
SURFACES
 10
224.0
 20
32.5
 30
0.0
 11
224.0
 21
34.0
 31
1.5
  0
LINE
  5
11C
  8
SURFACES
 10
224.0
 20
34.0
 30
3.0
 11
224.0
 21
34.0
 31
0.0
  0
LINE
  5
11D
  8
SURFACES
 10
224.0
 20
34.0
 30
0.0
 11
224.0
 21
37.0
 31
0.0
  0
LINE
  5
11E
  8
SURFACES
 10
224.0
 20
37.0
 30
0.0
 11
224.0
 21
34.0
 31
3.0
  0
LINE
  5
11F
  8
SURFACES
 10
224.0
 20
35.5
 30
1.5
 11
224.0
 21
34.0
 31
0.0
  0
LINE
  5
120
  8
SURFACES
 10
224.0
 20
34.0
 30
1.5
 11
224.0
 21
35.49999999999999
 31
0.0
  0
LINE
  5
121
  8
SURFACES
 10
217.0
 20
44.0
 30
0.0
 11
214.0
 21
44.0
 31
0.0
  0
LINE
  5
122
  8
SURFACES
 10
214.0
 20
44.0
 30
0.0
 11
214.0
 21
44.0
 31
3.0
  0
LINE
  5
123
  8
SURFACES
 10
214.0
 20
44.0
 30
3.0
 11
217.0
 21
44.0
 31
0.0
  0
LINE
  5
124
  8
SURFACES
 10
215.5
 20
44.0
 30
1.5
 11
214.0
 21
44.0
 31
0.0
  0
LINE
  5
125
  8
SURFACES
 10
215.5
 20
44.0
 30
0.0
 11
214.0
 21
44.0
 31
1.5
  0
LINE
  5
126
  8
SURFACES
 10
208.9723394580617
 20
39.46731480896414
 30
0.0
 11
207.1270243274838
 21
38.69607420522203
 31
0.0
  0
LINE
  5
127
  8
SURFACES
 10
207.1270243274838
 20
38.69607420522203
 30
0.0
 11
207.1270243274838
 21
38.69607420522204
 31
3.0
  0
LINE
  5
128
  8
SURFACES
 10
207.1270243274838
 20
38.69607420522204
 30
3.0
 11
208.9723394580617
 21
39.46731480896414
 31
0.0
  0
LINE
  5
129
  8
SURFACES
 10
208.0496818927728
 20
39.08169450709309
 30
1.5
 11
207.1270243274838
 21
38.69607420522203
 31
0.0
  0
LINE
  5
12A
  8
SURFACES
 10
208.0496818927728
 20
39.08169450709309
 30
0.0
 11
207.1270243274838
 21
38.69607420522203
 31
1.5
  0
LINE
  5
12B
  8
SURFACES
 10
204.0
 20
36.0
 30
0.0
 11
204.0
 21
34.0
 31
0.0
  0
LINE
  5
12C
  8
SURFACES
 10
204.0
 20
34.0
 30
0.0
 11
204.0
 21
34.0
 31
3.0
  0
LINE
  5
12D
  8
SURFACES
 10
204.0
 20
34.0
 30
3.0
 11
204.0
 21
36.0
 31
0.0
  0
LINE
  5
12E
  8
SURFACES
 10
204.0
 20
35.0
 30
1.5
 11
204.0
 21
34.0
 31
0.0
  0
LINE
  5
12F
  8
SURFACES
 10
204.0
 20
35.0
 30
0.0
 11
204.0
 21
34.0
 31
1.5
  0
LINE
  5
130
  8
SURFACES
 10
214.0
 20
36.5
 30
3.0
 11
211.0
 21
36.0
 31
0.0
  0
LINE
  5
131
  8
SURFACES
 10
211.0
 20
36.0
 30
0.0
 11
214.0
 21
34.0
 31
3.0
  0
LINE
  5
132
  8
SURFACES
 10
214.0
 20
34.0
 30
3.0
 11
214.0
 21
36.5
 31
3.0
  0
LINE
  5
133
  8
SURFACES
 10
214.0
 20
35.25
 30
3.0
 11
211.0
 21
36.0
 31
0.0
  0
LINE
  5
134
  8
SURFACES
 10
212.5
 20
36.25
 30
1.5
 11
212.5
 21
35.0
 31
1.5
  0
LINE
  5
135
  8
SURFACES
 10
214.0
 20
44.0
 30
3.0
 11
214.0
 21
41.5
 31
3.0
  0
LINE
  5
136
  8
SURFACES
 10
214.0
 20
41.5
 30
3.0
 11
217.0
 21
42.35406592285381
 31
0.0
  0
LINE
  5
137
  8
SURFACES
 10
217.0
 20
42.35406592285381
 30
0.0
 11
214.0
 21
44.0
 31
3.0
  0
LINE
  5
138
  8
SURFACES
 10
215.5
 20
43.1770329614269
 30
1.5
 11
214.0
 21
41.5
 31
3.0
  0
LINE
  5
139
  8
SURFACES
 10
214.0
 20
42.75
 30
3.0
 11
215.5
 21
41.9270329614269
 31
1.5
  0
LINE
  5
13A
  8
SURFACES
 10
217.0
 20
44.0
 30
0.0
 11
214.0
 21
44.0
 31
3.0
  0
LINE
  5
13B
  8
SURFACES
 10
214.0
 20
44.0
 30
3.0
 11
217.0
 21
42.35406592285381
 31
0.0
  0
LINE
  5
13C
  8
SURFACES
 10
217.0
 20
42.35406592285381
 30
0.0
 11
217.0
 21
44.0
 31
0.0
  0
LINE
  5
13D
  8
SURFACES
 10
217.0
 20
43.1770329614269
 30
0.0
 11
214.0
 21
44.0
 31
3.0
  0
LINE
  5
13E
  8
SURFACES
 10
215.5
 20
44.0
 30
1.5
 11
215.5
 21
43.1770329614269
 31
1.5
  0
LINE
  5
13F
  8
SURFACES
 10
217.0
 20
38.0459340771462
 30
0.0
 11
214.0
 21
39.0
 31
3.0
  0
LINE
  5
140
  8
SURFACES
 10
214.0
 20
39.0
 30
3.0
 11
214.0
 21
36.5
 31
3.0
  0
LINE
  5
141
  8
SURFACES
 10
214.0
 20
36.5
 30
3.0
 11
217.0
 21
38.0459340771462
 31
0.0
  0
LINE
  5
142
  8
SURFACES
 10
215.5
 20
37.2729670385731
 30
1.5
 11
214.0
 21
39.0
 31
3.0
  0
LINE
  5
143
  8
SURFACES
 10
215.5
 20
38.5229670385731
 30
1.5
 11
214.0
 21
37.75
 31
3.0
  0
LINE
  5
144
  8
SURFACES
 10
218.0
 20
37.0
 30
0.0
 11
217.0
 21
37.0
 31
0.0
  0
LINE
  5
145
  8
SURFACES
 10
217.0
 20
37.0
 30
0.0
 11
218.0
 21
34.0
 31
3.0
  0
LINE
  5
146
  8
SURFACES
 10
218.0
 20
34.0
 30
3.0
 11
218.0
 21
37.0
 31
0.0
  0
LINE
  5
147
  8
SURFACES
 10
218.0
 20
35.5
 30
1.5
 11
217.0
 21
37.0
 31
0.0
  0
LINE
  5
148
  8
SURFACES
 10
217.5
 20
37.0
 30
0.0
 11
217.5
 21
35.5
 31
1.5
  0
LINE
  5
149
  8
SURFACES
 10
214.0
 20
34.0
 30
3.0
 11
218.0
 21
34.0
 31
3.0
  0
LINE
  5
14A
  8
SURFACES
 10
218.0
 20
34.0
 30
3.0
 11
217.0
 21
37.0
 31
0.0
  0
LINE
  5
14B
  8
SURFACES
 10
217.0
 20
37.0
 30
0.0
 11
214.0
 21
34.0
 31
3.0
  0
LINE
  5
14C
  8
SURFACES
 10
215.5
 20
35.5
 30
1.5
 11
218.0
 21
34.0
 31
3.0
  0
LINE
  5
14D
  8
SURFACES
 10
216.0
 20
34.0
 30
3.0
 11
217.5
 21
35.5
 31
1.5
  0
LINE
  5
14E
  8
SURFACES
 10
214.0
 20
36.5
 30
3.0
 11
214.0
 21
34.0
 31
3.0
  0
LINE
  5
14F
  8
SURFACES
 10
214.0
 20
34.0
 30
3.0
 11
217.0
 21
37.0
 31
0.0
  0
LINE
  5
150
  8
SURFACES
 10
217.0
 20
37.0
 30
0.0
 11
214.0
 21
36.5
 31
3.0
  0
LINE
  5
151
  8
SURFACES
 10
215.5
 20
36.75
 30
1.5
 11
214.0
 21
34.0
 31
3.0
  0
LINE
  5
152
  8
SURFACES
 10
214.0
 20
35.25
 30
3.0
 11
215.5
 21
35.5
 31
1.5
  0
LINE
  5
153
  8
SURFACES
 10
217.0
 20
38.0459340771462
 30
0.0
 11
214.0
 21
36.5
 31
3.0
  0
LINE
  5
154
  8
SURFACES
 10
214.0
 20
36.5
 30
3.0
 11
217.0
 21
37.0
 31
0.0
  0
LINE
  5
155
  8
SURFACES
 10
217.0
 20
37.0
 30
0.0
 11
217.0
 21
38.0459340771462
 31
0.0
  0
LINE
  5
156
  8
SURFACES
 10
217.0
 20
37.52296703857309
 30
0.0
 11
214.0
 21
36.5
 31
3.0
  0
LINE
  5
157
  8
SURFACES
 10
215.5
 20
37.2729670385731
 30
1.5
 11
215.5
 21
36.75
 31
1.5
  0
LINE
  5
158
  8
AXIS
 10
214.0
 20
39.0
 30
3.0
 11
214.0
 21
44.0
 31
3.0
  0
LINE
  5
159
  8
AXIS
 10
214.0
 20
34.0
 30
3.0
 11
214.0
 21
39.0
 31
3.0
  0
LINE
  5
15A
  8
SURFACES
 10
218.0
 20
37.0
 30
0.0
 11
218.0
 21
34.0
 31
3.0
  0
LINE
  5
15B
  8
SURFACES
 10
218.0
 20
34.0
 30
3.0
 11
224.0
 21
34.0
 31
3.0
  0
LINE
  5
15C
  8
SURFACES
 10
224.0
 20
34.0
 30
3.0
 11
218.0
 21
37.0
 31
0.0
  0
LINE
  5
15D
  8
SURFACES
 10
221.0
 20
35.5
 30
1.5
 11
218.0
 21
34.0
 31
3.0
  0
LINE
  5
15E
  8
SURFACES
 10
218.0
 20
35.5
 30
1.5
 11
221.0
 21
34.0
 31
3.0
  0
LINE
  5
15F
  8
SURFACES
 10
218.0
 20
37.0
 30
0.0
 11
224.0
 21
34.0
 31
3.0
  0
LINE
  5
160
  8
SURFACES
 10
224.0
 20
34.0
 30
3.0
 11
224.0
 21
37.0
 31
0.0
  0
LINE
  5
161
  8
SURFACES
 10
224.0
 20
37.0
 30
0.0
 11
218.0
 21
37.0
 31
0.0
  0
LINE
  5
162
  8
SURFACES
 10
221.0
 20
37.0
 30
0.0
 11
224.0
 21
34.0
 31
3.0
  0
LINE
  5
163
  8
SURFACES
 10
221.0
 20
35.5
 30
1.5
 11
224.0
 21
35.5
 31
1.5
  0
LINE
  5
164
  8
SURFACES
 10
224.0
 20
34.0
 30
3.0
 11
218.0
 21
34.0
 31
3.0
  0
LINE
  5
165
  8
SURFACES
 10
218.0
 20
34.0
 30
3.0
 11
220.0
 21
31.0
 31
0.0
  0
LINE
  5
166
  8
SURFACES
 10
220.0
 20
31.0
 30
0.0
 11
224.0
 21
34.0
 31
3.0
  0
LINE
  5
167
  8
SURFACES
 10
222.0
 20
32.5
 30
1.5
 11
218.0
 21
34.0
 31
3.0
  0
LINE
  5
168
  8
SURFACES
 10
221.0
 20
34.0
 30
3.0
 11
219.0
 21
32.5
 31
1.5
  0
LINE
  5
169
  8
SURFACES
 10
224.0
 20
31.0
 30
0.0
 11
224.0
 21
34.0
 31
3.0
  0
LINE
  5
16A
  8
SURFACES
 10
224.0
 20
34.0
 30
3.0
 11
220.0
 21
31.0
 31
0.0
  0
LINE
  5
16B
  8
SURFACES
 10
220.0
 20
31.0
 30
0.0
 11
224.0
 21
31.0
 31
0.0
  0
LINE
  5
16C
  8
SURFACES
 10
222.0
 20
31.0
 30
0.0
 11
224.0
 21
34.0
 31
3.0
  0
LINE
  5
16D
  8
SURFACES
 10
224.0
 20
32.5
 30
1.5
 11
222.0
 21
32.5
 31
1.5
  0
LINE
  5
16E
  8
SURFACES
 10
220.0
 20
31.0
 30
0.0
 11
218.0
 21
34.0
 31
3.0
  0
LINE
  5
16F
  8
SURFACES
 10
218.0
 20
34.0
 30
3.0
 11
218.0
 21
31.5
 31
3.0
  0
LINE
  5
170
  8
SURFACES
 10
218.0
 20
31.5
 30
3.0
 11
220.0
 21
31.0
 31
0.0
  0
LINE
  5
171
  8
SURFACES
 10
219.0
 20
31.25
 30
1.5
 11
218.0
 21
34.0
 31
3.0
  0
LINE
  5
172
  8
SURFACES
 10
219.0
 20
32.5
 30
1.5
 11
218.0
 21
32.75
 31
3.0
  0
LINE
  5
173
  8
SURFACES
 10
218.0
 20
31.5
 30
3.0
 11
218.0
 21
29.0
 31
3.0
  0
LINE
  5
174
  8
SURFACES
 10
218.0
 20
29.0
 30
3.0
 11
220.0
 21
29.0
 31
0.0
  0
LINE
  5
175
  8
SURFACES
 10
220.0
 20
29.0
 30
0.0
 11
218.0
 21
31.5
 31
3.0
  0
LINE
  5
176
  8
SURFACES
 10
219.0
 20
30.25
 30
1.5
 11
218.0
 21
29.0
 31
3.0
  0
LINE
  5
177
  8
SURFACES
 10
218.0
 20
30.25
 30
3.0
 11
219.0
 21
29.0
 31
1.5
  0
LINE
  5
178
  8
SURFACES
 10
220.0
 20
31.0
 30
0.0
 11
218.0
 21
31.5
 31
3.0
  0
LINE
  5
179
  8
SURFACES
 10
218.0
 20
31.5
 30
3.0
 11
220.0
 21
29.0
 31
0.0
  0
LINE
  5
17A
  8
SURFACES
 10
220.0
 20
29.0
 30
0.0
 11
220.0
 21
31.0
 31
0.0
  0
LINE
  5
17B
  8
SURFACES
 10
220.0
 20
30.0
 30
0.0
 11
218.0
 21
31.5
 31
3.0
  0
LINE
  5
17C
  8
SURFACES
 10
219.0
 20
31.25
 30
1.5
 11
219.0
 21
30.25
 31
1.5
  0
LINE
  5
17D
  8
SURFACES
 10
207.1270243274838
 20
38.69607420522204
 30
3.0
 11
209.0897260065835
 21
34.0
 31
3.0
  0
LINE
  5
17E
  8
SURFACES
 10
209.0897260065835
 20
34.0
 30
3.0
 11
210.4214870439226
 21
36.0
 31
0.0
  0
LINE
  5
17F
  8
SURFACES
 10
210.4214870439226
 20
36.0
 30
0.0
 11
207.1270243274838
 21
38.69607420522204
 31
3.0
  0
LINE
  5
180
  8
SURFACES
 10
208.7742556857032
 20
37.34803710261102
 30
1.5
 11
209.0897260065835
 21
34.0
 31
3.0
  0
LINE
  5
181
  8
SURFACES
 10
208.1083751670337
 20
36.34803710261102
 30
3.0
 11
209.755606525253
 21
35.0
 31
1.5
  0
LINE
  5
182
  8
SURFACES
 10
208.9723394580617
 20
39.46731480896414
 30
0.0
 11
207.1270243274838
 21
38.69607420522204
 31
3.0
  0
LINE
  5
183
  8
SURFACES
 10
207.1270243274838
 20
38.69607420522204
 30
3.0
 11
210.4214870439226
 21
36.0
 31
0.0
  0
LINE
  5
184
  8
SURFACES
 10
210.4214870439226
 20
36.0
 30
0.0
 11
208.9723394580617
 21
39.46731480896414
 31
0.0
  0
LINE
  5
185
  8
SURFACES
 10
209.6969132509921
 20
37.73365740448207
 30
0.0
 11
207.1270243274838
 21
38.69607420522204
 31
3.0
  0
LINE
  5
186
  8
SURFACES
 10
208.0496818927728
 20
39.08169450709309
 30
1.5
 11
208.7742556857032
 21
37.34803710261102
 31
1.5
  0
LINE
  5
187
  8
SURFACES
 10
209.0897260065835
 20
34.0
 30
3.0
 11
207.1270243274838
 21
38.69607420522204
 31
3.0
  0
LINE
  5
188
  8
SURFACES
 10
207.1270243274838
 20
38.69607420522204
 30
3.0
 11
206.0861841639776
 21
36.0
 31
0.0
  0
LINE
  5
189
  8
SURFACES
 10
206.0861841639776
 20
36.0
 30
0.0
 11
209.0897260065835
 21
34.0
 31
3.0
  0
LINE
  5
18A
  8
SURFACES
 10
207.5879550852806
 20
35.0
 30
1.5
 11
207.1270243274838
 21
38.69607420522204
 31
3.0
  0
LINE
  5
18B
  8
SURFACES
 10
208.1083751670337
 20
36.34803710261102
 30
3.0
 11
206.6066042457307
 21
37.34803710261102
 31
1.5
  0
LINE
  5
18C
  8
SURFACES
 10
204.0
 20
34.0
 30
3.0
 11
209.0897260065835
 21
34.0
 31
3.0
  0
LINE
  5
18D
  8
SURFACES
 10
209.0897260065835
 20
34.0
 30
3.0
 11
206.0861841639776
 21
36.0
 31
0.0
  0
LINE
  5
18E
  8
SURFACES
 10
206.0861841639776
 20
36.0
 30
0.0
 11
204.0
 21
34.0
 31
3.0
  0
LINE
  5
18F
  8
SURFACES
 10
205.0430920819888
 20
35.0
 30
1.5
 11
209.0897260065835
 21
34.0
 31
3.0
  0
LINE
  5
190
  8
SURFACES
 10
206.5448630032918
 20
34.0
 30
3.0
 11
207.5879550852806
 21
35.0
 31
1.5
  0
LINE
  5
191
  8
SURFACES
 10
204.0
 20
36.0
 30
0.0
 11
204.0
 21
34.0
 31
3.0
  0
LINE
  5
192
  8
SURFACES
 10
204.0
 20
34.0
 30
3.0
 11
206.0861841639776
 21
36.0
 31
0.0
  0
LINE
  5
193
  8
SURFACES
 10
206.0861841639776
 20
36.0
 30
0.0
 11
204.0
 21
36.0
 31
0.0
  0
LINE
  5
194
  8
SURFACES
 10
205.0430920819888
 20
36.0
 30
0.0
 11
204.0
 21
34.0
 31
3.0
  0
LINE
  5
195
  8
SURFACES
 10
204.0
 20
35.0
 30
1.5
 11
205.0430920819888
 21
35.0
 31
1.5
  0
LINE
  5
196
  8
SURFACES
 10
216.0
 20
31.0
 30
0.0
 11
214.0
 21
29.0
 31
3.0
  0
LINE
  5
197
  8
SURFACES
 10
214.0
 20
29.0
 30
3.0
 11
214.0
 21
31.0
 31
0.0
  0
LINE
  5
198
  8
SURFACES
 10
214.0
 20
31.0
 30
0.0
 11
216.0
 21
31.0
 31
0.0
  0
LINE
  5
199
  8
SURFACES
 10
215.0
 20
31.0
 30
0.0
 11
214.0
 21
29.0
 31
3.0
  0
LINE
  5
19A
  8
SURFACES
 10
215.0
 20
30.0
 30
1.5
 11
214.0
 21
30.0
 31
1.5
  0
LINE
  5
19B
  8
SURFACES
 10
216.0
 20
31.0
 30
0.0
 11
218.0
 21
29.0
 31
3.0
  0
LINE
  5
19C
  8
SURFACES
 10
218.0
 20
29.0
 30
3.0
 11
214.0
 21
29.0
 31
3.0
  0
LINE
  5
19D
  8
SURFACES
 10
214.0
 20
29.0
 30
3.0
 11
216.0
 21
31.0
 31
0.0
  0
LINE
  5
19E
  8
SURFACES
 10
215.0
 20
30.0
 30
1.5
 11
218.0
 21
29.0
 31
3.0
  0
LINE
  5
19F
  8
SURFACES
 10
217.0
 20
30.0
 30
1.5
 11
216.0
 21
29.0
 31
3.0
  0
LINE
  5
1A0
  8
SURFACES
 10
216.0
 20
27.0
 30
0.0
 11
218.0
 21
29.0
 31
3.0
  0
LINE
  5
1A1
  8
SURFACES
 10
218.0
 20
29.0
 30
3.0
 11
214.0
 21
29.0
 31
3.0
  0
LINE
  5
1A2
  8
SURFACES
 10
214.0
 20
29.0
 30
3.0
 11
216.0
 21
27.0
 31
0.0
  0
LINE
  5
1A3
  8
SURFACES
 10
215.0
 20
28.0
 30
1.5
 11
218.0
 21
29.0
 31
3.0
  0
LINE
  5
1A4
  8
SURFACES
 10
217.0
 20
28.0
 30
1.5
 11
216.0
 21
29.0
 31
3.0
  0
LINE
  5
1A5
  8
SURFACES
 10
216.0
 20
27.0
 30
0.0
 11
214.0
 21
29.0
 31
3.0
  0
LINE
  5
1A6
  8
SURFACES
 10
214.0
 20
29.0
 30
3.0
 11
214.0
 21
27.0
 31
0.0
  0
LINE
  5
1A7
  8
SURFACES
 10
214.0
 20
27.0
 30
0.0
 11
216.0
 21
27.0
 31
0.0
  0
LINE
  5
1A8
  8
SURFACES
 10
215.0
 20
27.0
 30
0.0
 11
214.0
 21
29.0
 31
3.0
  0
LINE
  5
1A9
  8
SURFACES
 10
215.0
 20
28.0
 30
1.5
 11
214.0
 21
28.0
 31
1.5
  0
LINE
  5
1AA
  8
SURFACES
 10
218.0
 20
26.0
 30
3.0
 11
218.0
 21
29.0
 31
3.0
  0
LINE
  5
1AB
  8
SURFACES
 10
218.0
 20
29.0
 30
3.0
 11
216.0
 21
27.0
 31
0.0
  0
LINE
  5
1AC
  8
SURFACES
 10
216.0
 20
27.0
 30
0.0
 11
218.0
 21
26.0
 31
3.0
  0
LINE
  5
1AD
  8
SURFACES
 10
217.0
 20
26.5
 30
1.5
 11
218.0
 21
29.0
 31
3.0
  0
LINE
  5
1AE
  8
SURFACES
 10
218.0
 20
27.5
 30
3.0
 11
217.0
 21
28.0
 31
1.5
  0
LINE
  5
1AF
  8
SURFACES
 10
216.0
 20
26.0
 30
0.0
 11
218.0
 21
26.0
 31
3.0
  0
LINE
  5
1B0
  8
SURFACES
 10
218.0
 20
26.0
 30
3.0
 11
216.0
 21
27.0
 31
0.0
  0
LINE
  5
1B1
  8
SURFACES
 10
216.0
 20
27.0
 30
0.0
 11
216.0
 21
26.0
 31
0.0
  0
LINE
  5
1B2
  8
SURFACES
 10
216.0
 20
26.5
 30
0.0
 11
218.0
 21
26.0
 31
3.0
  0
LINE
  5
1B3
  8
SURFACES
 10
217.0
 20
26.0
 30
1.5
 11
217.0
 21
26.5
 31
1.5
  0
LINE
  5
1B4
  8
SURFACES
 10
220.0
 20
29.0
 30
0.0
 11
218.0
 21
29.0
 31
3.0
  0
LINE
  5
1B5
  8
SURFACES
 10
218.0
 20
29.0
 30
3.0
 11
218.0
 21
26.0
 31
3.0
  0
LINE
  5
1B6
  8
SURFACES
 10
218.0
 20
26.0
 30
3.0
 11
220.0
 21
29.0
 31
0.0
  0
LINE
  5
1B7
  8
SURFACES
 10
219.0
 20
27.5
 30
1.5
 11
218.0
 21
29.0
 31
3.0
  0
LINE
  5
1B8
  8
SURFACES
 10
219.0
 20
29.0
 30
1.5
 11
218.0
 21
27.5
 31
3.0
  0
LINE
  5
1B9
  8
SURFACES
 10
220.0
 20
29.0
 30
0.0
 11
218.0
 21
26.0
 31
3.0
  0
LINE
  5
1BA
  8
SURFACES
 10
218.0
 20
26.0
 30
3.0
 11
220.0
 21
26.0
 31
0.0
  0
LINE
  5
1BB
  8
SURFACES
 10
220.0
 20
26.0
 30
0.0
 11
220.0
 21
29.0
 31
0.0
  0
LINE
  5
1BC
  8
SURFACES
 10
220.0
 20
27.5
 30
0.0
 11
218.0
 21
26.0
 31
3.0
  0
LINE
  5
1BD
  8
SURFACES
 10
219.0
 20
27.5
 30
1.5
 11
219.0
 21
26.0
 31
1.5
  0
LINE
  5
1BE
  8
AXIS
 10
214.0
 20
39.0
 30
3.0
 11
219.0
 21
41.0
 31
3.0
  0
LINE
  5
1BF
  8
AXIS
 10
218.0
 20
29.0
 30
3.0
 11
214.0
 21
29.0
 31
3.0
  0
LINE
  5
1C0
  8
AXIS
 10
209.0897260065835
 20
34.0
 30
3.0
 11
207.1270243274838
 21
38.69607420522204
 31
3.0
  0
ENDSEC
  0
EOF
